<svg width="16" height="16" viewBox="0 0 16 16" fill="none" xmlns="http://www.w3.org/2000/svg">
<rect width="16" height="16" fill="white"/>
<mask id="path-1-outside-1_38_3" maskUnits="userSpaceOnUse" x="0" y="3" width="15" height="9" fill="black">
<rect fill="white" y="3" width="15" height="9"/>
<path d="M6.69229 9.11035C6.69229 9.37109 6.64248 9.61572 6.54287 9.84424C6.44326 10.0728 6.30703 10.2734 6.13418 10.4463C5.96426 10.6162 5.76504 10.751 5.53652 10.8506C5.30801 10.9502 5.06338 11 4.80264 11H1.65176V4.69824H4.80264C5.06338 4.69824 5.30801 4.74805 5.53652 4.84766C5.76504 4.94727 5.96426 5.0835 6.13418 5.25635C6.30703 5.42627 6.44326 5.62549 6.54287 5.854C6.64248 6.08252 6.69229 6.32715 6.69229 6.58789C6.69229 6.70508 6.67617 6.8252 6.64395 6.94824C6.61172 7.07129 6.56631 7.18994 6.50771 7.3042C6.44912 7.41846 6.37881 7.52246 6.29678 7.61621C6.21475 7.70996 6.12393 7.7876 6.02432 7.84912C6.12686 7.90479 6.21914 7.98096 6.30117 8.07764C6.3832 8.17139 6.45352 8.27539 6.51211 8.38965C6.5707 8.50391 6.61465 8.62402 6.64395 8.75C6.67617 8.87305 6.69229 8.99316 6.69229 9.11035ZM2.91299 9.73877H4.80264C4.89053 9.73877 4.97256 9.72266 5.04873 9.69043C5.1249 9.6582 5.19082 9.61426 5.24648 9.55859C5.30508 9.5 5.35049 9.43262 5.38271 9.35645C5.41494 9.28027 5.43105 9.19824 5.43105 9.11035C5.43105 9.02246 5.41494 8.94043 5.38271 8.86426C5.35049 8.78809 5.30508 8.72217 5.24648 8.6665C5.19082 8.60791 5.1249 8.5625 5.04873 8.53027C4.97256 8.49805 4.89053 8.48193 4.80264 8.48193H2.91299V9.73877ZM2.91299 7.2207H4.80264C4.89053 7.2207 4.97256 7.20459 5.04873 7.17236C5.1249 7.14014 5.19082 7.09619 5.24648 7.04053C5.30508 6.98193 5.35049 6.91455 5.38271 6.83838C5.41494 6.75928 5.43105 6.67578 5.43105 6.58789C5.43105 6.5 5.41494 6.41797 5.38271 6.3418C5.35049 6.26562 5.30508 6.19971 5.24648 6.14404C5.19082 6.08545 5.1249 6.04004 5.04873 6.00781C4.97256 5.97559 4.89053 5.95947 4.80264 5.95947H2.91299V7.2207ZM13.858 11H9.4459V4.69824H10.7071V9.73877H13.858V11Z"/>
</mask>
<path d="M6.69229 9.11035C6.69229 9.37109 6.64248 9.61572 6.54287 9.84424C6.44326 10.0728 6.30703 10.2734 6.13418 10.4463C5.96426 10.6162 5.76504 10.751 5.53652 10.8506C5.30801 10.9502 5.06338 11 4.80264 11H1.65176V4.69824H4.80264C5.06338 4.69824 5.30801 4.74805 5.53652 4.84766C5.76504 4.94727 5.96426 5.0835 6.13418 5.25635C6.30703 5.42627 6.44326 5.62549 6.54287 5.854C6.64248 6.08252 6.69229 6.32715 6.69229 6.58789C6.69229 6.70508 6.67617 6.8252 6.64395 6.94824C6.61172 7.07129 6.56631 7.18994 6.50771 7.3042C6.44912 7.41846 6.37881 7.52246 6.29678 7.61621C6.21475 7.70996 6.12393 7.7876 6.02432 7.84912C6.12686 7.90479 6.21914 7.98096 6.30117 8.07764C6.3832 8.17139 6.45352 8.27539 6.51211 8.38965C6.5707 8.50391 6.61465 8.62402 6.64395 8.75C6.67617 8.87305 6.69229 8.99316 6.69229 9.11035ZM2.91299 9.73877H4.80264C4.89053 9.73877 4.97256 9.72266 5.04873 9.69043C5.1249 9.6582 5.19082 9.61426 5.24648 9.55859C5.30508 9.5 5.35049 9.43262 5.38271 9.35645C5.41494 9.28027 5.43105 9.19824 5.43105 9.11035C5.43105 9.02246 5.41494 8.94043 5.38271 8.86426C5.35049 8.78809 5.30508 8.72217 5.24648 8.6665C5.19082 8.60791 5.1249 8.5625 5.04873 8.53027C4.97256 8.49805 4.89053 8.48193 4.80264 8.48193H2.91299V9.73877ZM2.91299 7.2207H4.80264C4.89053 7.2207 4.97256 7.20459 5.04873 7.17236C5.1249 7.14014 5.19082 7.09619 5.24648 7.04053C5.30508 6.98193 5.35049 6.91455 5.38271 6.83838C5.41494 6.75928 5.43105 6.67578 5.43105 6.58789C5.43105 6.5 5.41494 6.41797 5.38271 6.3418C5.35049 6.26562 5.30508 6.19971 5.24648 6.14404C5.19082 6.08545 5.1249 6.04004 5.04873 6.00781C4.97256 5.97559 4.89053 5.95947 4.80264 5.95947H2.91299V7.2207ZM13.858 11H9.4459V4.69824H10.7071V9.73877H13.858V11Z" fill="black"/>
<path d="M1.65176 11H0.651758V12H1.65176V11ZM1.65176 4.69824V3.69824H0.651758V4.69824H1.65176ZM6.13418 5.25635L5.42106 5.95739L5.42705 5.96348L5.43314 5.96947L6.13418 5.25635ZM6.02432 7.84912L5.49882 6.99832L4.03103 7.9049L5.54722 8.72797L6.02432 7.84912ZM6.30117 8.07764L5.53866 8.72461L5.54359 8.73042L5.5486 8.73614L6.30117 8.07764ZM6.64395 8.75L5.66994 8.97651L5.67307 8.98998L5.67657 9.00336L6.64395 8.75ZM2.91299 9.73877H1.91299V10.7388H2.91299V9.73877ZM5.24648 8.6665L4.52148 9.35525L4.53915 9.37384L4.55773 9.3915L5.24648 8.6665ZM2.91299 8.48193V7.48193H1.91299V8.48193H2.91299ZM2.91299 7.2207H1.91299V8.2207H2.91299V7.2207ZM5.38271 6.83838L6.30376 7.22805L6.30881 7.21568L5.38271 6.83838ZM5.24648 6.14404L4.52148 6.83279L4.53915 6.85138L4.55773 6.86904L5.24648 6.14404ZM2.91299 5.95947V4.95947H1.91299V5.95947H2.91299ZM5.69229 9.11035C5.69229 9.24004 5.66832 9.34797 5.62618 9.44465L7.45957 10.2438C7.61664 9.88347 7.69229 9.50215 7.69229 9.11035H5.69229ZM5.62618 9.44465C5.57556 9.56077 5.50966 9.65659 5.42707 9.73918L6.84129 11.1534C7.1044 10.8903 7.31096 10.5847 7.45957 10.2438L5.62618 9.44465ZM5.42707 9.73918C5.34894 9.81731 5.25509 9.88239 5.13694 9.93389L5.93611 11.7673C6.27498 11.6196 6.57957 11.4151 6.84129 11.1534L5.42707 9.73918ZM5.13694 9.93389C5.04026 9.97603 4.93232 10 4.80264 10V12C5.19443 12 5.57576 11.9244 5.93611 11.7673L5.13694 9.93389ZM4.80264 10H1.65176V12H4.80264V10ZM2.65176 11V4.69824H0.651758V11H2.65176ZM1.65176 5.69824H4.80264V3.69824H1.65176V5.69824ZM4.80264 5.69824C4.93232 5.69824 5.04026 5.72221 5.13694 5.76435L5.93611 3.93096C5.57576 3.77388 5.19443 3.69824 4.80264 3.69824V5.69824ZM5.13694 5.76435C5.25151 5.81429 5.34345 5.87844 5.42106 5.95739L6.8473 4.55531C6.58507 4.28855 6.27857 4.08024 5.93611 3.93096L5.13694 5.76435ZM5.43314 5.96947C5.51209 6.04708 5.57623 6.13902 5.62618 6.25359L7.45957 5.45442C7.31029 5.11196 7.10198 4.80546 6.83522 4.54322L5.43314 5.96947ZM5.62618 6.25359C5.66832 6.35027 5.69229 6.4582 5.69229 6.58789H7.69229C7.69229 6.19609 7.61664 5.81477 7.45957 5.45442L5.62618 6.25359ZM5.69229 6.58789C5.69229 6.61263 5.68897 6.64755 5.67657 6.69488L7.61132 7.2016C7.66337 7.00284 7.69229 6.79752 7.69229 6.58789H5.69229ZM5.67657 6.69488C5.66293 6.74699 5.64366 6.79764 5.6179 6.84788L7.39753 7.76052C7.48895 7.58224 7.56051 7.39559 7.61132 7.2016L5.67657 6.69488ZM5.6179 6.84788C5.59546 6.89163 5.57075 6.92736 5.5442 6.95771L7.04935 8.27472C7.18686 8.11756 7.30278 7.94528 7.39753 7.76052L5.6179 6.84788ZM5.5442 6.95771C5.52364 6.9812 5.5083 6.99247 5.49882 6.99832L6.54981 8.69992C6.73955 8.58273 6.90585 8.43872 7.04935 8.27472L5.5442 6.95771ZM5.54722 8.72797C5.54057 8.72436 5.53603 8.72101 5.53387 8.71922C5.53183 8.71754 5.53362 8.71867 5.53866 8.72461L7.06368 7.43066C6.90863 7.24792 6.72168 7.08984 6.50141 6.97027L5.54722 8.72797ZM5.5486 8.73614C5.57515 8.76649 5.59985 8.80221 5.62229 8.84597L7.40193 7.93333C7.30718 7.74857 7.19126 7.57629 7.05375 7.41913L5.5486 8.73614ZM5.62229 8.84597C5.64325 8.88683 5.65905 8.92971 5.66994 8.97651L7.61795 8.52349C7.57024 8.31834 7.49816 8.12099 7.40193 7.93333L5.62229 8.84597ZM5.67657 9.00336C5.68897 9.0507 5.69229 9.08561 5.69229 9.11035H7.69229C7.69229 8.90072 7.66337 8.6954 7.61132 8.49664L5.67657 9.00336ZM2.91299 10.7388H4.80264V8.73877H2.91299V10.7388ZM4.80264 10.7388C5.01588 10.7388 5.23131 10.699 5.43837 10.6114L4.65909 8.76946C4.7138 8.74632 4.76518 8.73877 4.80264 8.73877V10.7388ZM5.43837 10.6114C5.62705 10.5316 5.80229 10.417 5.95359 10.2657L4.53938 8.85149C4.57935 8.81152 4.62276 8.78483 4.65909 8.76946L5.43837 10.6114ZM5.95359 10.2657C6.10307 10.1162 6.22118 9.94109 6.30368 9.74609L4.46175 8.96681C4.4798 8.92414 4.50708 8.88378 4.53938 8.85149L5.95359 10.2657ZM6.30368 9.74609C6.39128 9.53903 6.43105 9.32359 6.43105 9.11035H4.43105C4.43105 9.07289 4.4386 9.02152 4.46175 8.96681L6.30368 9.74609ZM6.43105 9.11035C6.43105 8.89711 6.39128 8.68167 6.30368 8.47462L4.46175 9.2539C4.4386 9.19919 4.43105 9.14781 4.43105 9.11035H6.43105ZM6.30368 8.47462C6.2192 8.27493 6.09582 8.09406 5.93523 7.9415L4.55773 9.3915C4.51434 9.35028 4.48178 9.30124 4.46175 9.2539L6.30368 8.47462ZM5.97148 7.97775C5.81893 7.81717 5.63806 7.69379 5.43837 7.60931L4.65909 9.45124C4.61175 9.43121 4.56271 9.39865 4.52148 9.35525L5.97148 7.97775ZM5.43837 7.60931C5.23131 7.52171 5.01588 7.48193 4.80264 7.48193V9.48193C4.76518 9.48193 4.7138 9.47439 4.65909 9.45124L5.43837 7.60931ZM4.80264 7.48193H2.91299V9.48193H4.80264V7.48193ZM1.91299 8.48193V9.73877H3.91299V8.48193H1.91299ZM2.91299 8.2207H4.80264V6.2207H2.91299V8.2207ZM4.80264 8.2207C5.01588 8.2207 5.23131 8.18093 5.43837 8.09333L4.65909 6.2514C4.7138 6.22825 4.76518 6.2207 4.80264 6.2207V8.2207ZM5.43837 8.09333C5.62705 8.01351 5.80229 7.89893 5.95359 7.74763L4.53938 6.33342C4.57935 6.29345 4.62276 6.26677 4.65909 6.2514L5.43837 8.09333ZM5.95359 7.74763C6.10307 7.59815 6.22118 7.42303 6.30368 7.22802L4.46175 6.44874C4.4798 6.40608 4.50708 6.36571 4.53938 6.33342L5.95359 7.74763ZM6.30881 7.21568C6.39127 7.01328 6.43105 6.80131 6.43105 6.58789H4.43105C4.43105 6.55025 4.43862 6.50528 4.45662 6.46108L6.30881 7.21568ZM6.43105 6.58789C6.43105 6.37465 6.39128 6.15921 6.30368 5.95216L4.46175 6.73144C4.4386 6.67673 4.43105 6.62535 4.43105 6.58789H6.43105ZM6.30368 5.95216C6.2192 5.75247 6.09582 5.5716 5.93523 5.41904L4.55773 6.86904C4.51434 6.82782 4.48178 6.77878 4.46175 6.73144L6.30368 5.95216ZM5.97148 5.45529C5.81893 5.29471 5.63806 5.17133 5.43837 5.08685L4.65909 6.92878C4.61175 6.90875 4.56271 6.87619 4.52148 6.83279L5.97148 5.45529ZM5.43837 5.08685C5.23131 4.99924 5.01588 4.95947 4.80264 4.95947V6.95947C4.76518 6.95947 4.7138 6.95193 4.65909 6.92878L5.43837 5.08685ZM4.80264 4.95947H2.91299V6.95947H4.80264V4.95947ZM1.91299 5.95947V7.2207H3.91299V5.95947H1.91299ZM13.858 11V12H14.858V11H13.858ZM9.4459 11H8.4459V12H9.4459V11ZM9.4459 4.69824V3.69824H8.4459V4.69824H9.4459ZM10.7071 4.69824H11.7071V3.69824H10.7071V4.69824ZM10.7071 9.73877H9.70713V10.7388H10.7071V9.73877ZM13.858 9.73877H14.858V8.73877H13.858V9.73877ZM13.858 10H9.4459V12H13.858V10ZM10.4459 11V4.69824H8.4459V11H10.4459ZM9.4459 5.69824H10.7071V3.69824H9.4459V5.69824ZM9.70713 4.69824V9.73877H11.7071V4.69824H9.70713ZM10.7071 10.7388H13.858V8.73877H10.7071V10.7388ZM12.858 9.73877V11H14.858V9.73877H12.858Z" fill="black" mask="url(#path-1-outside-1_38_3)"/>
</svg>
