<svg xmlns="http://www.w3.org/2000/svg" version="1.1" xmlns:xlink="http://www.w3.org/1999/xlink" width="512" height="512" x="0" y="0" viewBox="0 0 852 852.5" style="enable-background:new 0 0 512 512" xml:space="preserve" class=""><g><path d="M35.344 397.86c.097 120.726 65.484 231.956 170.926 290.757l-70.48 82.215H88.62c-7.351 0-13.316 5.961-13.316 13.316 0 7.36 5.965 13.32 13.316 13.32h133.207c7.352 0 13.32-5.96 13.32-13.32 0-7.355-5.968-13.316-13.32-13.316h-50.98l59.879-69.855a332.429 332.429 0 0 0 265.636 4.316l56.168 65.539h-50.976c-7.36 0-13.325 5.961-13.325 13.316 0 7.36 5.965 13.32 13.325 13.32h133.203c7.36 0 13.32-5.96 13.32-13.32 0-7.355-5.96-13.316-13.32-13.316H587.59l-66.176-77.258a333.282 333.282 0 0 0 126.902-115.383c3.762-6.164 1.922-14.214-4.148-18.129-6.07-3.917-14.164-2.28-18.23 3.692-82.47 128.078-246.504 176.105-385.032 112.742C102.375 613.13 31.45 457.613 74.426 311.465c42.969-146.14 186.789-238.512 337.57-216.817 150.77 21.7 262.707 150.887 262.723 303.211 0 4.286-.09 8.54-.27 12.778-.3 7.351 5.414 13.566 12.774 13.863 7.359.309 13.566-5.414 13.87-12.77.169-4.546.266-9.218.266-13.87 0-183.91-149.093-333.005-333.011-333.005-183.914 0-333.004 149.094-333.004 333.004zm0 0" fill="#ffffff" opacity="1" data-original="#000000" class=""></path><path d="M368.348 597.664c-22.07 0-39.957 17.895-39.957 39.969 0 22.062 17.886 39.953 39.957 39.953 22.074 0 39.965-17.89 39.965-39.953 0-22.074-17.891-39.969-39.965-39.969zm0 53.285c-7.352 0-13.317-5.965-13.317-13.316 0-7.363 5.965-13.328 13.317-13.328 7.359 0 13.32 5.965 13.32 13.328 0 7.351-5.961 13.316-13.32 13.316zM261.785 637.633c22.074 0 39.965-17.899 39.965-39.969 0-22.066-17.89-39.96-39.965-39.96-22.066 0-39.957 17.894-39.957 39.96 0 22.07 17.89 39.969 39.957 39.969zm0-53.29c7.363 0 13.324 5.973 13.324 13.321 0 7.36-5.96 13.324-13.324 13.324-7.351 0-13.316-5.965-13.316-13.324 0-7.348 5.965-13.32 13.316-13.32zM368.348 491.105c-22.07 0-39.957 17.891-39.957 39.958 0 22.07 17.886 39.964 39.957 39.964 22.074 0 39.965-17.894 39.965-39.965 0-22.066-17.891-39.957-39.965-39.957zm0 53.282c-7.352 0-13.317-5.965-13.317-13.324 0-7.352 5.965-13.32 13.317-13.32 7.359 0 13.32 5.968 13.32 13.32 0 7.359-5.961 13.324-13.32 13.324zM514.875 597.664c0-22.066-17.895-39.96-39.96-39.96-22.075 0-39.962 17.894-39.962 39.96 0 22.07 17.887 39.969 39.961 39.969 22.066 0 39.961-17.899 39.961-39.969zm-53.285 0c0-7.348 5.965-13.32 13.324-13.32 7.356 0 13.316 5.972 13.316 13.32 0 7.36-5.96 13.324-13.316 13.324-7.36 0-13.324-5.965-13.324-13.324zM128.586 517.742c0 22.07 17.887 39.961 39.957 39.961 22.074 0 39.965-17.89 39.965-39.96 0-22.071-17.89-39.962-39.965-39.962-22.07 0-39.957 17.89-39.957 39.961zm53.277 0c0 7.36-5.96 13.32-13.32 13.32-7.352 0-13.316-5.96-13.316-13.32 0-7.355 5.964-13.32 13.316-13.32 7.36 0 13.32 5.965 13.32 13.32zM248.469 357.898c0-22.066-17.899-39.96-39.961-39.96-22.067 0-39.965 17.894-39.965 39.96 0 22.075 17.898 39.961 39.965 39.961 22.062 0 39.96-17.886 39.96-39.96zm-53.29 0c0-7.355 5.97-13.316 13.329-13.316 7.351 0 13.32 5.961 13.32 13.316 0 7.36-5.969 13.325-13.32 13.325-7.36 0-13.328-5.965-13.328-13.325zM315.07 491.105c0-22.074-17.894-39.96-39.96-39.96-22.075 0-39.962 17.886-39.962 39.96 0 22.067 17.887 39.958 39.961 39.958 22.067 0 39.961-17.891 39.961-39.958zm-39.96 13.317c-7.36 0-13.325-5.961-13.325-13.317 0-7.363 5.965-13.324 13.324-13.324 7.356 0 13.317 5.961 13.317 13.324 0 7.356-5.961 13.317-13.317 13.317zM501.555 277.977c0 22.074 17.89 39.96 39.957 39.96 22.074 0 39.96-17.886 39.96-39.96 0-22.067-17.886-39.954-39.96-39.954-22.067 0-39.957 17.887-39.957 39.954zm53.28 0c0 7.363-5.96 13.324-13.323 13.324-7.356 0-13.317-5.961-13.317-13.324 0-7.356 5.961-13.317 13.317-13.317 7.363 0 13.324 5.961 13.324 13.317zM355.031 251.34c22.067 0 39.953-17.895 39.953-39.961 0-22.074-17.886-39.961-39.953-39.961-22.074 0-39.96 17.887-39.96 39.96 0 22.067 17.886 39.962 39.96 39.962zm0-53.285c7.356 0 13.317 5.968 13.317 13.324 0 7.355-5.961 13.316-13.317 13.316-7.363 0-13.324-5.96-13.324-13.316 0-7.356 5.961-13.324 13.324-13.324zM368.348 357.898a39.977 39.977 0 0 1 19.98 5.329c6.332 3.312 14.137 1.043 17.707-5.133 3.574-6.184 1.645-14.082-4.383-17.91-29.433-17.032-66.964-9.157-87.07 18.261-20.11 27.422-16.332 65.586 8.766 88.532 25.093 22.949 63.437 23.304 88.957.835a13.324 13.324 0 0 0 4.25-12.628 13.325 13.325 0 0 0-21.871-7.352c-13.34 11.766-32.856 13.297-47.868 3.754-15.011-9.54-21.91-27.856-16.918-44.93 4.985-17.082 20.665-28.8 38.45-28.758zm0 0" fill="#ffffff" opacity="1" data-original="#000000" class=""></path><path d="M714.68 451.145c-24.223.085-45.34 16.5-51.39 39.96h-97.427c-3.535 0-6.918-1.41-9.418-3.902l-90.953-90.953a39.712 39.712 0 0 0-28.246-11.71h-68.898c-7.352 0-13.317 5.972-13.317 13.32 0 7.359 5.965 13.324 13.317 13.324h68.898c3.531 0 6.922 1.402 9.414 3.902l90.95 90.95a39.653 39.653 0 0 0 28.253 11.706h97.426c6.965 26.742 33.254 43.696 60.492 39 27.23-4.68 46.34-29.445 43.969-56.98-2.375-27.532-25.437-48.66-53.07-48.617zm0 79.917c-14.72 0-26.645-11.93-26.645-26.64s11.926-26.64 26.645-26.64c14.71 0 26.636 11.929 26.636 26.64s-11.925 26.64-26.636 26.64zM181.863 72.844a13.09 13.09 0 0 0 6.426-1.664 373.335 373.335 0 0 1 180.059-46.29c7.359 0 13.32-5.96 13.32-13.316S375.707-1.75 368.348-1.75a399.976 399.976 0 0 0-192.914 49.582 13.32 13.32 0 0 0-6.528 15.012 13.308 13.308 0 0 0 12.957 10zM51.422 154.438A398.896 398.896 0 0 0-1.5 246.344c-2.758 6.785.484 14.515 7.258 17.316a13.07 13.07 0 0 0 5.058 1 13.327 13.327 0 0 0 12.325-8.262 372.317 372.317 0 0 1 49.402-85.742c4.336-5.84 3.191-14.074-2.582-18.504-5.766-4.422-14.016-3.414-18.54 2.286zM612.71 679.64a13.317 13.317 0 0 0 4.195 22.957 13.312 13.312 0 0 0 13.251-2.843 402.245 402.245 0 0 0 55.121-58.465c4.336-5.84 3.188-14.07-2.586-18.5-5.757-4.426-14.011-3.414-18.539 2.281a375.741 375.741 0 0 1-51.441 54.57zm0 0" fill="#ffffff" opacity="1" data-original="#000000" class=""></path></g></svg>