<svg xmlns="http://www.w3.org/2000/svg" version="1.1" xmlns:xlink="http://www.w3.org/1999/xlink" width="512" height="512" x="0" y="0" viewBox="0 0 512 512" style="enable-background:new 0 0 512 512" xml:space="preserve" class=""><g><path d="m238.647 322.064-13.1 6.887c-3.668 1.928-7.955-1.186-7.255-5.271l2.502-14.587a5.003 5.003 0 0 0-1.438-4.426l-10.598-10.33c-2.968-2.893-1.33-7.932 2.771-8.528l14.646-2.128a5.003 5.003 0 0 0 3.765-2.735l6.55-13.271c1.834-3.716 7.133-3.716 8.967 0l6.55 13.271a4.997 4.997 0 0 0 3.765 2.735l14.646 2.128c4.101.596 5.739 5.636 2.771 8.528l-10.598 10.33a5.003 5.003 0 0 0-1.438 4.426l2.502 14.587c.701 4.084-3.587 7.199-7.255 5.271l-13.1-6.887a4.998 4.998 0 0 0-4.653 0zM183.997 97.265v-56.89l38.463 55.697c.713 1.03 1.477.525 1.477-.728l-.533-55.076M160.249 40.269v56.996M131.709 53.384c0 7.243-5.872 13.115-13.115 13.115-3.592 0-16.556.058-16.556.058V40.269h16.556c7.243 0 13.115 5.872 13.115 13.115z" style="stroke-width:15;stroke-linecap:round;stroke-linejoin:round;stroke-miterlimit:10;" fill="none" stroke="#000000" stroke-width="15" stroke-linecap="round" stroke-linejoin="round" stroke-miterlimit="10" data-original="#000000" class=""></path><path d="M136.827 81.856c0 8.473-6.869 15.342-15.342 15.342-4.202 0-19.447.068-19.447.068V66.514h19.447c8.473 0 15.342 6.869 15.342 15.342zM291.368 45.136a28.363 28.363 0 0 0-15.934-4.867c-15.739 0-28.498 12.759-28.498 28.498s12.759 28.498 28.498 28.498 24.601-12.759 24.601-28.498h-17.05" style="stroke-width:15;stroke-linecap:round;stroke-linejoin:round;stroke-miterlimit:10;" fill="none" stroke="#000000" stroke-width="15" stroke-linecap="round" stroke-linejoin="round" stroke-miterlimit="10" data-original="#000000" class=""></path><circle cx="351.411" cy="68.767" r="28.498" style="stroke-width:15;stroke-linecap:round;stroke-linejoin:round;stroke-miterlimit:10;" transform="rotate(-45.001 351.412 68.772)" fill="none" stroke="#000000" stroke-width="15" stroke-linecap="round" stroke-linejoin="round" stroke-miterlimit="10" data-original="#000000" class=""></circle><path d="m403.905 224.485 43.129 43.128M387.389 284.13l-65.205 65.205M297.233 403.374l-13.736 13.736a5 5 0 0 1-7.071 0l-22.017-22.017a5 5 0 0 1 0-7.071l13.736-13.736M253.702 395.8l-21.345 21.345c-2.38 2.38-1.776 6.383 1.199 7.956l19.554 10.337a4.999 4.999 0 0 0 5.872-.885l16.737-16.737M185.309 130.034V464.02M367.892 352.691h40.074M73.981 352.691h197.2M296.638 326.93V130.034M296.638 464.02v-57.768M382.966 241.363H73.981M325.069 392.407l-10.916 10.916c-3.905 3.905-10.237 3.905-14.142 0l-31.815-31.815c-3.905-3.905-3.905-10.237 0-14.142L421.63 203.932c3.905-3.905 10.237-3.905 14.142 0l31.815 31.815c3.905 3.905 3.905 10.237 0 14.142L348.181 369.294M440.463 129.086v77.54" style="stroke-width:15;stroke-linecap:round;stroke-linejoin:round;stroke-miterlimit:10;" fill="none" stroke="#000000" stroke-width="15" stroke-linecap="round" stroke-linejoin="round" stroke-miterlimit="10" data-original="#000000" class=""></path><path d="M440.463 279.426V479.5c0 13.807-11.193 25-25 25H66.484c-13.807 0-25-11.193-25-25v-447c0-13.807 11.193-25 25-25h348.979c13.807 0 25 11.193 25 25v63.9" style="stroke-width:15;stroke-linecap:round;stroke-linejoin:round;stroke-miterlimit:10;" fill="none" stroke="#000000" stroke-width="15" stroke-linecap="round" stroke-linejoin="round" stroke-miterlimit="10" data-original="#000000" class=""></path><path d="M73.981 313.37v125.65c0 13.807 11.193 25 25 25h283.985c13.807 0 25-11.193 25-25V311.642M407.966 215.412v-60.378c0-13.807-11.193-25-25-25H98.981c-13.807 0-25 11.193-25 25v125.649" style="stroke-width:15;stroke-linecap:round;stroke-linejoin:round;stroke-miterlimit:10;" fill="none" stroke="#000000" stroke-width="15" stroke-linecap="round" stroke-linejoin="round" stroke-miterlimit="10" data-original="#000000" class=""></path></g></svg>